<?xml version="1.0" encoding="UTF-8" standalone="no"?>
<!-- Created with Inkscape (http://www.inkscape.org/) -->

<svg
   xmlns:dc="http://purl.org/dc/elements/1.1/"
   xmlns:cc="http://creativecommons.org/ns#"
   xmlns:rdf="http://www.w3.org/1999/02/22-rdf-syntax-ns#"
   xmlns:svg="http://www.w3.org/2000/svg"
   xmlns="http://www.w3.org/2000/svg"
   xmlns:sodipodi="http://sodipodi.sourceforge.net/DTD/sodipodi-0.dtd"
   xmlns:inkscape="http://www.inkscape.org/namespaces/inkscape"
   version="1.1"
   id="svg2"
   xml:space="preserve"
   width="539.74664"
   height="131.01334"
   viewBox="0 0 539.74664 131.01334"
   sodipodi:docname="AV Integra Servis logotyp Black.eps"
   inkscape:version="0.92.3 (2405546, 2018-03-11)"><metadata
     id="metadata8"><rdf:RDF><cc:Work
         rdf:about=""><dc:format>image/svg+xml</dc:format><dc:type
           rdf:resource="http://purl.org/dc/dcmitype/StillImage" /><dc:title></dc:title></cc:Work></rdf:RDF></metadata><defs
     id="defs6" /><sodipodi:namedview
     pagecolor="#ffffff"
     bordercolor="#666666"
     borderopacity="1"
     objecttolerance="10"
     gridtolerance="10"
     guidetolerance="10"
     inkscape:pageopacity="0"
     inkscape:pageshadow="2"
     inkscape:window-width="2560"
     inkscape:window-height="1412"
     id="namedview4"
     showgrid="false"
     inkscape:pagecheckerboard="true"
     inkscape:zoom="2.6753293"
     inkscape:cx="248.15159"
     inkscape:cy="71.030645"
     inkscape:window-x="0"
     inkscape:window-y="0"
     inkscape:window-maximized="1"
     inkscape:current-layer="g10" /><g
     id="g10"
     inkscape:groupmode="layer"
     inkscape:label="ink_ext_XXXXXX"
     transform="matrix(1.3333333,0,0,-1.3333333,0,131.01333)"><g
       id="g12"
       transform="scale(0.1)"
       style="fill:#ffffff"><path
         d="m 2645.82,67.9297 c 16.27,-9.7656 39.45,-17.4805 64.69,-17.4805 22.77,0 43.51,10.5664 43.51,32.1289 0,15.4492 -11.79,25.6249 -37.03,38.6519 -29.28,15.86 -56.95,37.012 -56.95,72.813 0,55.332 48.44,89.082 108.22,89.082 33.36,0 52.87,-7.324 64.67,-13.828 l -18.28,-48.809 c -8.97,4.883 -28.48,12.598 -51.27,12.207 -27.25,0 -41.5,-13.847 -41.5,-28.886 0,-15.879 16.67,-25.625 39.88,-38.653 33.36,-17.5 54.49,-39.863 54.49,-72.4021 C 2816.25,31.7188 2765.82,0 2704.8,0 c -38.24,0.820313 -65.5,10.1758 -78.51,19.9219 l 19.53,48.0078"
         style="fill:#ffffff;fill-opacity:1;fill-rule:nonzero;stroke:none"
         id="path14"
         inkscape:connector-curvature="0" /><path
         d="m 3060.27,120.82 h -97.63 l -12.6,-66.3083 h 109.41 l -9.33,-50.03904 h -168.03 l 52.07,274.17934 h 162.32 l -9.76,-50.039 H 2983.4 l -11.41,-58.574 h 97.64 l -9.36,-49.219"
         style="fill:#ffffff;fill-opacity:1;fill-rule:nonzero;stroke:none"
         id="path16"
         inkscape:connector-curvature="0" /><path
         d="m 3220.08,156.621 h 24.41 c 31.72,0 54.92,19.121 54.92,45.957 0,21.973 -18.71,31.738 -41.91,31.738 -10.98,0 -17.89,-0.82 -22.77,-2.031 z m -35.39,116.738 c 18.32,4.493 45.97,7.325 73.24,7.325 26.02,0 52.87,-4.063 71.99,-15.86 17.89,-10.586 30.51,-28.066 30.51,-53.691 0,-40.684 -27.27,-65.899 -62.23,-77.305 v -1.621 c 16.25,-6.914 23.17,-25.215 26.02,-50.039 3.26,-30.5078 5.7,-66.3086 10.58,-77.69534 h -60.19 c -2.46,7.32424 -5.31,30.91794 -8.15,64.68754 -2.44,33.3598 -13.84,43.5158 -37.01,43.5158 h -17.91 L 3191.21,4.47266 h -58.18 l 51.66,268.88634"
         style="fill:#ffffff;fill-opacity:1;fill-rule:nonzero;stroke:none"
         id="path18"
         inkscape:connector-curvature="0" /><path
         d="M 3466.95,4.47266 3432.77,278.652 h 60.61 l 12.21,-130.586 c 2.85,-28.867 4.88,-55.7222 6.5,-84.1988 h 0.82 c 10.18,26.8555 23.18,56.1328 36.62,84.6098 l 61.41,130.175 h 65.51 L 3534.88,4.47266 h -67.93"
         style="fill:#ffffff;fill-opacity:1;fill-rule:nonzero;stroke:none"
         id="path20"
         inkscape:connector-curvature="0" /><path
         d="M 3806.54,278.652 3754.47,4.47266 h -58.57 l 52.07,274.17934 h 58.57"
         style="fill:#ffffff;fill-opacity:1;fill-rule:nonzero;stroke:none"
         id="path22"
         inkscape:connector-curvature="0" /><path
         d="m 3861.02,67.9297 c 16.25,-9.7656 39.45,-17.4805 64.66,-17.4805 22.8,0 43.54,10.5664 43.54,32.1289 0,15.4492 -11.8,25.6249 -37.03,38.6519 -29.3,15.86 -56.96,37.012 -56.96,72.813 0,55.332 48.42,89.082 108.21,89.082 33.36,0 52.89,-7.324 64.69,-13.828 l -18.31,-48.809 c -8.96,4.883 -28.47,12.598 -51.27,12.207 -27.24,0 -41.48,-13.847 -41.48,-28.886 0,-15.879 16.68,-25.625 39.88,-38.653 33.34,-17.5 54.5,-39.863 54.5,-72.4021 C 4031.45,31.7188 3981.02,0 3920,0 c -38.24,0.820313 -65.51,10.1758 -78.52,19.9219 l 19.54,48.0078"
         style="fill:#ffffff;fill-opacity:1;fill-rule:nonzero;stroke:none"
         id="path24"
         inkscape:connector-curvature="0" /><path
         d="m 193.02,724.102 c -52.883,0.664 -93.8677,-11.914 -93.8677,-50.899 0,-25.781 17.1877,-38.34 39.6567,-38.34 25.117,0 45.617,16.524 52.226,37.012 1.32,5.293 1.985,11.25 1.985,17.188 z m 97.82,-74.024 c 0,-31.094 1.328,-60.82 4.629,-78.672 H 204.91 l -5.945,32.383 H 196.98 C 175.828,578.008 142.773,564.141 104.441,564.141 38.9922,564.141 0,611.719 0,663.281 0,747.227 75.3516,787.559 189.707,786.895 v 4.628 c 0,17.188 -9.246,41.641 -58.828,41.641 -33.047,0 -68.086,-11.23 -89.2384,-24.453 l -18.5039,64.766 c 22.4688,12.578 66.7578,28.437 125.5933,28.437 107.747,0 142.11,-63.457 142.11,-139.473 V 650.078"
         style="fill:#ffffff;fill-opacity:1;fill-rule:nonzero;stroke:none"
         id="path26"
         inkscape:connector-curvature="0" /><path
         d="M 569.172,894.648 612.793,744.59 c 7.93,-27.09 13.879,-52.871 18.508,-78.652 h 1.98 c 5.293,26.445 10.574,50.898 17.852,78.652 l 41.64,150.058 H 798.535 L 678.23,571.406 H 577.766 L 460.098,894.648 h 109.074"
         style="fill:#ffffff;fill-opacity:1;fill-rule:nonzero;stroke:none"
         id="path28"
         inkscape:connector-curvature="0" /><path
         d="m 1508.54,791.523 c 0,40.313 -1.32,74.688 -2.65,103.125 h 87.25 l 4.63,-44.296 h 1.99 c 13.22,20.488 46.27,51.562 99.81,51.562 66.09,0 115.67,-43.633 115.67,-138.828 v -191.68 h -100.47 v 179.141 c 0,41.641 -14.55,70.058 -50.89,70.058 -27.77,0 -44.3,-19.16 -50.9,-37.675 -2.65,-6.602 -3.98,-15.86 -3.98,-25.117 V 571.406 h -100.46 v 220.117"
         style="fill:#ffffff;fill-opacity:1;fill-rule:nonzero;stroke:none"
         id="path30"
         inkscape:connector-curvature="0" /><path
         d="m 2136.54,982.559 v -87.911 h 72.03 v -74.043 h -72.03 V 703.594 c 0,-38.985 9.24,-56.836 39.65,-56.836 13.87,0 19.85,0.664 29.75,2.656 l 0.66,-76.016 c -13.22,-5.293 -37.01,-9.257 -65.45,-9.257 -32.38,0 -59.49,11.894 -75.35,28.418 -18.51,19.16 -27.77,50.234 -27.77,95.839 v 132.207 h -42.95 v 74.043 h 42.95 v 60.801 l 98.51,27.11"
         style="fill:#ffffff;fill-opacity:1;fill-rule:nonzero;stroke:none"
         id="path32"
         inkscape:connector-curvature="0" /><path
         d="m 2591.35,769.707 c 0,24.473 -10.59,65.449 -56.86,65.449 -42.3,0 -59.49,-38.359 -62.13,-65.449 z m -118.32,-68.73 c 3.3,-41.661 44.27,-61.485 91.21,-61.485 34.37,0 62.15,4.629 89.24,13.223 l 13.22,-68.086 c -33.05,-13.223 -73.36,-20.488 -116.99,-20.488 -109.73,0 -172.54,64.101 -172.54,165.234 0,81.992 50.9,172.539 163.28,172.539 104.43,0 144.1,-81.309 144.1,-161.289 0,-17.187 -1.99,-32.383 -3.32,-39.648 h -208.2"
         style="fill:#ffffff;fill-opacity:1;fill-rule:nonzero;stroke:none"
         id="path34"
         inkscape:connector-curvature="0" /><path
         d="m 3082.52,763.086 c 0,6.621 -0.66,13.242 -1.99,18.516 -7.27,26.445 -26.45,44.296 -54.22,44.296 -36.33,0 -66.1,-33.046 -66.1,-91.875 0,-48.261 23.79,-85.937 66.1,-85.937 25.78,0 46.29,17.187 52.89,40.977 2.66,7.265 3.32,17.851 3.32,26.445 z M 3182.99,618.34 c 0,-62.129 -12.58,-113.027 -48.93,-145.41 -35.68,-30.43 -83.94,-39.688 -131.54,-39.688 -42.31,0 -87.25,8.594 -116.33,25.117 l 19.83,76.016 c 20.48,-11.875 56.19,-24.453 93.86,-24.453 47.6,0 83.95,25.781 83.95,85.273 v 21.172 h -1.31 c -19.18,-27.109 -50.23,-42.304 -87.27,-42.304 -79.98,0 -136.83,64.765 -136.83,157.968 0,103.789 67.42,169.883 146.76,169.883 44.27,0 72.03,-19.18 88.55,-45.625 h 1.33 l 3.32,38.359 h 87.25 c -1.31,-20.507 -2.64,-47.597 -2.64,-95.859 V 618.34"
         style="fill:#ffffff;fill-opacity:1;fill-rule:nonzero;stroke:none"
         id="path36"
         inkscape:connector-curvature="0" /><path
         d="m 3395.86,788.203 c 0,47.617 -1.31,78.672 -2.64,106.445 h 86.58 l 3.31,-59.492 h 2.65 c 16.53,46.914 56.17,66.758 87.25,66.758 9.26,0 13.88,0 21.15,-1.328 v -95.195 c -7.27,1.992 -15.86,3.32 -27.11,3.32 -36.99,0 -62.13,-19.844 -68.75,-50.898 -1.31,-6.602 -1.97,-14.532 -1.97,-22.461 V 571.406 h -100.47 v 216.797"
         style="fill:#ffffff;fill-opacity:1;fill-rule:nonzero;stroke:none"
         id="path38"
         inkscape:connector-curvature="0" /><path
         d="M 3943.87,724.102 C 3891,724.766 3850,712.188 3850,673.203 c 0,-25.781 17.19,-38.34 39.67,-38.34 25.12,0 45.6,16.524 52.22,37.012 1.31,5.293 1.98,11.25 1.98,17.188 z m 97.83,-74.024 c 0,-31.094 1.33,-60.82 4.61,-78.672 h -90.55 l -5.94,32.383 h -1.99 c -21.15,-25.781 -54.22,-39.648 -92.54,-39.648 -65.43,0 -104.45,47.578 -104.45,99.14 0,83.946 75.35,124.278 189.73,123.614 v 4.628 c 0,17.188 -9.26,41.641 -58.83,41.641 -33.05,0 -68.09,-11.23 -89.26,-24.453 l -18.5,64.766 c 22.48,12.578 66.76,28.437 125.61,28.437 107.73,0 142.11,-63.457 142.11,-139.473 V 650.078"
         style="fill:#ffffff;fill-opacity:1;fill-rule:nonzero;stroke:none"
         id="path40"
         inkscape:connector-curvature="0" /><path
         d="m 1265.54,748.203 c 29,-35.625 46.44,-81.113 46.44,-130.625 0,-114.375 -92.69,-207.109 -207.05,-207.109 -114.371,0 -207.11,92.734 -207.11,207.109 0,50.254 17.934,96.289 47.739,132.149 l -36.719,36.699 c -39.082,-45.313 -62.777,-104.278 -62.777,-168.848 0,-143.008 115.863,-258.887 258.867,-258.887 142.97,0 258.83,115.879 258.83,258.887 0,63.828 -23.13,122.305 -61.48,167.383 l -36.74,-36.758"
         style="fill:#ffffff;fill-opacity:1;fill-rule:nonzero;stroke:none"
         id="path42"
         inkscape:connector-curvature="0" /><path
         d="m 1057.41,571.016 h 100.02 V 894.883 H 1057.41 V 571.016"
         style="fill:#ffffff;fill-opacity:1;fill-rule:nonzero;stroke:none"
         id="path44"
         inkscape:connector-curvature="0" /></g></g></svg>