<?xml version="1.0" encoding="iso-8859-1"?>
<!-- Generator: Adobe Illustrator 19.0.0, SVG Export Plug-In . SVG Version: 6.00 Build 0)  -->
<svg version="1.1" id="Capa_1" xmlns="http://www.w3.org/2000/svg" xmlns:xlink="http://www.w3.org/1999/xlink" x="0px" y="0px"
	 viewBox="0 0 512 512" style="enable-background:new 0 0 512 512;" xml:space="preserve">
<g>
	<g>
		<g>
			<path d="M486.4,51.2H25.6C11.468,51.215,0.015,62.668,0,76.8v358.4c0.015,14.132,11.468,25.585,25.6,25.6h460.8
				c14.132-0.015,25.585-11.468,25.6-25.6V76.8C511.985,62.668,500.532,51.215,486.4,51.2z M494.933,435.2
				c-0.005,4.711-3.822,8.529-8.533,8.533H25.6c-4.711-0.005-8.529-3.822-8.533-8.533V76.8c0.005-4.711,3.822-8.529,8.533-8.533
				h460.8c4.711,0.005,8.529,3.822,8.533,8.533V435.2z"/>
			<path d="M238.933,93.867c-84.831,0-153.6,68.769-153.6,153.6s68.769,153.6,153.6,153.6s153.6-68.769,153.6-153.6
				C392.436,162.676,323.724,93.964,238.933,93.867z M238.933,384C163.528,384,102.4,322.872,102.4,247.467
				s61.128-136.533,136.533-136.533s136.533,61.128,136.533,136.533C375.38,322.836,314.303,383.914,238.933,384z"/>
			<path d="M238.933,128c-4.713,0-8.533,3.82-8.533,8.533s3.82,8.533,8.533,8.533c33.69,0.02,65.218,16.601,84.326,44.348
				c19.108,27.748,23.354,63.116,11.357,94.598c-1.088,2.849-0.574,6.063,1.35,8.429c1.923,2.367,4.963,3.528,7.975,3.046
				c3.012-0.482,5.537-2.534,6.625-5.384c13.994-36.73,9.039-77.991-13.254-110.363C315.02,147.37,278.238,128.025,238.933,128z"/>
			<path d="M266.925,166.829c-4.453-1.546-9.316,0.81-10.862,5.263c-1.546,4.453,0.81,9.316,5.262,10.863
				c27.462,9.551,45.87,35.437,45.875,64.513c0,2.539-0.139,5.076-0.417,7.6c-0.514,4.685,2.865,8.9,7.55,9.417
				c0.313,0.033,0.627,0.05,0.942,0.05c4.348-0.005,7.998-3.278,8.475-7.6c0.345-3.144,0.517-6.304,0.517-9.467
				C324.258,211.124,301.25,178.769,266.925,166.829z"/>
			<path d="M231.592,352.096c-33.599-2.58-63.779-21.52-80.714-50.654c-16.935-29.133-18.456-64.732-4.07-95.205
				c1.31-2.758,1.047-6.006-0.691-8.517s-4.685-3.902-7.728-3.647c-3.043,0.255-5.718,2.116-7.014,4.881
				c-16.761,35.552-14.974,77.072,4.779,111.052c19.754,33.98,54.949,56.079,94.138,59.106c0.225,0.017,0.442,0.025,0.658,0.025
				c4.584-0.006,8.344-3.632,8.516-8.212C239.639,356.345,236.162,352.446,231.592,352.096z"/>
			<path d="M202.967,327.129c2.858,1.348,5.787,2.539,8.775,3.567c2.883,1,6.081,0.383,8.386-1.616c2.305-2,3.367-5.078,2.786-8.073
				c-0.582-2.996-2.719-5.453-5.605-6.444c-2.4-0.828-4.753-1.785-7.05-2.867c-26.291-12.421-41.839-40.121-38.75-69.033
				c0.244-2.251-0.418-4.506-1.839-6.269c-1.421-1.763-3.485-2.888-5.736-3.127c-2.254-0.267-4.521,0.385-6.288,1.81
				s-2.886,3.501-3.104,5.761C150.681,276.975,170.11,311.597,202.967,327.129z"/>
			<path d="M238.933,196.267c-28.277,0-51.2,22.923-51.2,51.2s22.923,51.2,51.2,51.2s51.2-22.923,51.2-51.2
				C290.102,219.202,267.198,196.298,238.933,196.267z M238.933,281.6c-18.851,0-34.133-15.282-34.133-34.133
				s15.282-34.133,34.133-34.133s34.133,15.282,34.133,34.133C273.047,266.31,257.776,281.58,238.933,281.6z"/>
			<path d="M244.992,241.408c-2.451-2.424-6.122-3.133-9.3-1.796c-1.045,0.413-2.002,1.023-2.817,1.796
				c-0.753,0.829-1.359,1.78-1.792,2.813c-0.911,2.067-0.911,4.421,0,6.487c0.433,1.034,1.039,1.987,1.792,2.817
				c0.817,0.771,1.773,1.379,2.817,1.792c1.026,0.438,2.127,0.67,3.242,0.683c2.259-0.035,4.421-0.918,6.059-2.475
				c0.753-0.83,1.359-1.783,1.792-2.817c0.911-2.067,0.911-4.421,0-6.487C246.351,243.188,245.745,242.237,244.992,241.408z"/>
			<path d="M59.733,375.467c-14.138,0-25.6,11.461-25.6,25.6s11.461,25.6,25.6,25.6s25.6-11.462,25.6-25.6
				C85.318,386.935,73.865,375.482,59.733,375.467z M59.733,409.6c-4.713,0-8.533-3.82-8.533-8.533s3.82-8.533,8.533-8.533
				s8.533,3.82,8.533,8.533C68.262,405.778,64.444,409.595,59.733,409.6z"/>
			<path d="M59.733,307.2c-14.138,0-25.6,11.461-25.6,25.6s11.461,25.6,25.6,25.6s25.6-11.462,25.6-25.6
				C85.318,318.668,73.865,307.215,59.733,307.2z M59.733,341.333c-4.713,0-8.533-3.82-8.533-8.533s3.82-8.533,8.533-8.533
				s8.533,3.82,8.533,8.533C68.262,337.511,64.444,341.329,59.733,341.333z"/>
			<path d="M59.733,136.533c14.138,0,25.6-11.461,25.6-25.6c0-14.138-11.461-25.6-25.6-25.6s-25.6,11.461-25.6,25.6
				C34.149,125.065,45.601,136.518,59.733,136.533z M59.733,102.4c4.713,0,8.533,3.82,8.533,8.533s-3.82,8.533-8.533,8.533
				s-8.533-3.821-8.533-8.533C51.205,106.222,55.022,102.405,59.733,102.4z"/>
			<path d="M114.206,410.203c-3.202-1.329-6.89-0.59-9.331,1.872c-1.561,1.634-2.445,3.799-2.475,6.059
				c-0.027,0.573,0.029,1.147,0.167,1.704c0.096,0.535,0.27,1.053,0.517,1.538c0.184,0.545,0.442,1.062,0.767,1.538
				c0.317,0.446,0.659,0.873,1.025,1.279c1.636,1.558,3.8,2.441,6.059,2.475c0.573-0.016,1.144-0.073,1.708-0.171
				c0.533-0.096,1.05-0.269,1.533-0.512c0.543-0.188,1.059-0.447,1.533-0.771c0.425-0.337,0.858-0.679,1.283-1.021
				c1.571-1.628,2.457-3.796,2.475-6.058C119.487,414.667,117.408,411.532,114.206,410.203z"/>
			<path d="M151.125,412.075c-3.421-3.158-8.695-3.158-12.117,0c-0.753,0.829-1.359,1.78-1.792,2.813
				c-0.438,1.027-0.67,2.13-0.683,3.246c0.014,0.571,0.07,1.141,0.167,1.704c0.096,0.535,0.27,1.053,0.517,1.538
				c0.184,0.545,0.442,1.062,0.767,1.538c0.341,0.425,0.683,0.85,1.025,1.279c1.636,1.558,3.799,2.441,6.058,2.475
				c0.573-0.016,1.144-0.073,1.708-0.171c0.533-0.096,1.05-0.269,1.533-0.512c0.543-0.188,1.059-0.447,1.533-0.771
				c0.425-0.337,0.858-0.679,1.283-1.021c0.341-0.429,0.683-0.854,1.025-1.279c0.321-0.477,0.579-0.994,0.767-1.538
				c0.247-0.483,0.419-1.002,0.508-1.538c0.104-0.563,0.162-1.132,0.175-1.704c-0.013-1.116-0.245-2.219-0.683-3.246
				C152.484,413.855,151.878,412.903,151.125,412.075z"/>
			<path d="M110.933,102.4c0.573-0.02,1.143-0.077,1.708-0.171c0.533-0.096,1.05-0.269,1.533-0.513
				c0.543-0.188,1.059-0.447,1.533-0.771c0.449-0.313,0.877-0.654,1.284-1.021c2.953-2.896,3.444-7.476,1.171-10.932
				c-2.272-3.456-6.672-4.82-10.501-3.256s-6.015,5.618-5.219,9.677S106.798,102.4,110.933,102.4z"/>
			<path d="M375.467,401.067h-25.6c0-4.713-3.82-8.533-8.533-8.533s-8.533,3.82-8.533,8.533h-8.533c-4.713,0-8.533,3.82-8.533,8.533
				s3.82,8.533,8.533,8.533h8.533c0,4.713,3.821,8.533,8.533,8.533s8.533-3.821,8.533-8.533h25.6c4.713,0,8.533-3.821,8.533-8.533
				S380.18,401.067,375.467,401.067z"/>
			<path d="M469.333,121.039V93.867c0.001-2.263-0.898-4.434-2.499-6.035c-1.6-1.6-3.771-2.499-6.035-2.499h-34.133
				c-2.263-0.001-4.434,0.898-6.035,2.499c-1.6,1.6-2.499,3.771-2.499,6.035v27.172c-10.22,3.564-17.068,13.203-17.068,24.027
				c0,10.824,6.847,20.463,17.068,24.027v27.173c-0.001,2.263,0.898,4.434,2.499,6.035c1.6,1.6,3.771,2.499,6.035,2.499h11.065
				l21.21,58.963c2.256,6.214,2.469,12.986,0.608,19.329l-11.127,38.245l-9.406-4.703c-2.024-1.013-4.368-1.18-6.516-0.464
				s-3.923,2.256-4.934,4.281l-34.133,68.267c-1.013,2.024-1.179,4.368-0.463,6.516c0.716,2.147,2.255,3.922,4.28,4.934
				l34.133,17.067c3.889,1.959,8.63,0.629,10.931-3.068l23.202,11.601c4.213,2.09,9.323,0.378,11.426-3.829
				c2.103-4.206,0.407-9.321-3.792-11.438l-23.086-11.543l26.903-53.807c1.013-2.024,1.179-4.368,0.463-6.516
				s-2.255-3.922-4.28-4.934l-9.214-4.607l11.997-41.231c2.876-9.805,2.549-20.272-0.933-29.879L455.874,204.8h4.926
				c2.263,0.001,4.434-0.898,6.035-2.499c1.6-1.6,2.499-3.771,2.499-6.035v-27.172c10.22-3.565,17.067-13.204,17.067-24.028
				S479.553,124.604,469.333,121.039z M431.383,398.15l-18.867-9.433l26.5-53l18.867,9.433L431.383,398.15z M435.2,102.4h17.067
				v17.067H435.2V102.4z M452.267,187.733H435.2v-17.067h17.067V187.733z M460.8,153.6h-34.133c-4.713,0-8.533-3.82-8.533-8.533
				s3.82-8.533,8.533-8.533H460.8c4.713,0,8.533,3.82,8.533,8.533S465.513,153.6,460.8,153.6z"/>
		</g>
	</g>
</g>
<g>
</g>
<g>
</g>
<g>
</g>
<g>
</g>
<g>
</g>
<g>
</g>
<g>
</g>
<g>
</g>
<g>
</g>
<g>
</g>
<g>
</g>
<g>
</g>
<g>
</g>
<g>
</g>
<g>
</g>
</svg>
