<?xml version="1.0" encoding="iso-8859-1"?>
<!-- Generator: Adobe Illustrator 19.0.0, SVG Export Plug-In . SVG Version: 6.00 Build 0)  -->
<svg version="1.1" id="Layer_1" xmlns="http://www.w3.org/2000/svg" xmlns:xlink="http://www.w3.org/1999/xlink" x="0px" y="0px"
	 viewBox="0 0 512 512" style="enable-background:new 0 0 512 512;" xml:space="preserve">
<g transform="translate(1 1)">
	<g>
		<g>
			<path d="M118.467,348.867c-9.387,0-17.067,7.68-17.067,17.067S109.08,383,118.467,383c9.387,0,17.067-7.68,17.067-17.067
				S127.853,348.867,118.467,348.867z"/>
			<path d="M118.467,195.267c-9.387,0-17.067,7.68-17.067,17.067c0,9.387,7.68,17.067,17.067,17.067
				c9.387,0,17.067-7.68,17.067-17.067C135.533,202.947,127.853,195.267,118.467,195.267z"/>
			<path d="M391.533,195.267c-9.387,0-17.067,7.68-17.067,17.067c0,9.387,7.68,17.067,17.067,17.067s17.067-7.68,17.067-17.067
				C408.6,202.947,400.92,195.267,391.533,195.267z"/>
			<path d="M391.533,348.867c-9.387,0-17.067,7.68-17.067,17.067S382.147,383,391.533,383s17.067-7.68,17.067-17.067
				S400.92,348.867,391.533,348.867z"/>
			<path d="M212.333-1H24.6c-5.12,0-8.533,3.413-8.533,8.533v460.8c0,5.12,3.413,8.533,8.533,8.533v25.6
				c0,5.12,3.413,8.533,8.533,8.533H203.8c5.12,0,8.533-3.413,8.533-8.533v-25.6c5.12,0,8.533-3.413,8.533-8.533V7.533
				C220.867,2.413,217.453-1,212.333-1z M33.133,16.067H203.8V459.8H33.133V16.067z M195.267,493.933h-153.6v-17.067h153.6V493.933z
				"/>
			<path d="M485.4-1H297.667c-5.12,0-8.533,3.413-8.533,8.533v460.8c0,5.12,3.413,8.533,8.533,8.533v25.6
				c0,5.12,3.413,8.533,8.533,8.533h170.667c5.12,0,8.533-3.413,8.533-8.533v-25.6c5.12,0,8.533-3.413,8.533-8.533V7.533
				C493.933,2.413,490.52-1,485.4-1z M306.2,16.067h170.667V459.8H306.2V16.067z M468.333,493.933h-153.6v-17.067h153.6V493.933z"/>
			<path d="M391.533,306.2c-33.28,0-59.733,26.453-59.733,59.733s26.453,59.733,59.733,59.733s59.733-26.453,59.733-59.733
				S424.813,306.2,391.533,306.2z M391.533,408.6c-23.893,0-42.667-18.773-42.667-42.667s18.773-42.667,42.667-42.667
				S434.2,342.04,434.2,365.933S415.427,408.6,391.533,408.6z"/>
			<path d="M391.533,152.6c-33.28,0-59.733,26.453-59.733,59.733c0,33.28,26.453,59.733,59.733,59.733s59.733-26.453,59.733-59.733
				C451.267,179.053,424.813,152.6,391.533,152.6z M391.533,255c-23.893,0-42.667-18.773-42.667-42.667
				c0-23.893,18.773-42.667,42.667-42.667S434.2,188.44,434.2,212.333C434.2,236.227,415.427,255,391.533,255z"/>
			<path d="M391.533,118.467c18.773,0,34.133-15.36,34.133-34.133c0-18.773-15.36-34.133-34.133-34.133
				c-18.773,0-34.133,15.36-34.133,34.133C357.4,103.107,372.76,118.467,391.533,118.467z M391.533,67.267
				c9.387,0,17.067,7.68,17.067,17.067c0,9.387-7.68,17.067-17.067,17.067s-17.067-7.68-17.067-17.067
				C374.467,74.947,382.147,67.267,391.533,67.267z"/>
			<path d="M118.467,306.2c-33.28,0-59.733,26.453-59.733,59.733s26.453,59.733,59.733,59.733c33.28,0,59.733-26.453,59.733-59.733
				S151.747,306.2,118.467,306.2z M118.467,408.6c-23.893,0-42.667-18.773-42.667-42.667s18.773-42.667,42.667-42.667
				c23.893,0,42.667,18.773,42.667,42.667S142.36,408.6,118.467,408.6z"/>
			<path d="M118.467,152.6c-33.28,0-59.733,26.453-59.733,59.733c0,33.28,26.453,59.733,59.733,59.733
				c33.28,0,59.733-26.453,59.733-59.733C178.2,179.053,151.747,152.6,118.467,152.6z M118.467,255
				C94.573,255,75.8,236.227,75.8,212.333c0-23.893,18.773-42.667,42.667-42.667c23.893,0,42.667,18.773,42.667,42.667
				C161.133,236.227,142.36,255,118.467,255z"/>
			<path d="M118.467,118.467c18.773,0,34.133-15.36,34.133-34.133c0-18.773-15.36-34.133-34.133-34.133
				c-18.773,0-34.133,15.36-34.133,34.133C84.333,103.107,99.693,118.467,118.467,118.467z M118.467,67.267
				c9.387,0,17.067,7.68,17.067,17.067c0,9.387-7.68,17.067-17.067,17.067c-9.387,0-17.067-7.68-17.067-17.067
				C101.4,74.947,109.08,67.267,118.467,67.267z"/>
		</g>
	</g>
</g>
<g>
</g>
<g>
</g>
<g>
</g>
<g>
</g>
<g>
</g>
<g>
</g>
<g>
</g>
<g>
</g>
<g>
</g>
<g>
</g>
<g>
</g>
<g>
</g>
<g>
</g>
<g>
</g>
<g>
</g>
</svg>
