<?xml version="1.0" encoding="iso-8859-1"?>
<!-- Generator: Adobe Illustrator 19.0.0, SVG Export Plug-In . SVG Version: 6.00 Build 0)  -->
<svg version="1.1" id="Capa_1" xmlns="http://www.w3.org/2000/svg" xmlns:xlink="http://www.w3.org/1999/xlink" x="0px" y="0px"
	 viewBox="0 0 512 512" style="enable-background:new 0 0 512 512;" xml:space="preserve">
<g>
	<g>
		<path d="M469.333,59.733H323.674c-1.87-14.948-8.645-28.853-19.264-39.539c-0.058-0.061-0.075-0.143-0.135-0.203
			s-0.142-0.077-0.203-0.135c-26.58-26.476-69.564-26.476-96.144,0c-0.061,0.058-0.143,0.075-0.203,0.135
			c-0.06,0.06-0.077,0.142-0.135,0.203c-10.619,10.685-17.394,24.591-19.264,39.539H42.667C19.114,59.761,0.028,78.847,0,102.4
			v290.133c0.028,23.553,19.114,42.639,42.667,42.667h153.6v25.6h-25.6c-23.553,0.028-42.639,19.114-42.667,42.667
			c0,4.713,3.82,8.533,8.533,8.533h238.933c4.713,0,8.533-3.82,8.533-8.533c-0.028-23.553-19.114-42.639-42.667-42.667h-25.6v-25.6
			h153.6c23.553-0.028,42.639-19.114,42.667-42.667V102.4C511.972,78.847,492.886,59.761,469.333,59.733z M315.733,110.933h136.533
			c4.71,0.006,8.527,3.823,8.533,8.533v119.467h-17.067v-1.463c-0.006-10.208-5.617-19.588-14.608-24.421l-14.275-7.725v-1.092
			c1.975-3.442,3.594-7.076,4.833-10.846c3.724-2.959,5.926-7.431,6-12.188v-7.825c-0.033-3.521-1.318-6.915-3.625-9.575
			l-0.021-5.167c0.572-7.381-1.831-14.685-6.675-20.283c-7.084-7.265-17.003-11.05-27.125-10.35
			c-10.106-0.69-20.004,3.098-27.067,10.358c-4.698,5.388-7.091,12.406-6.663,19.541v5.875c-2.329,2.659-3.627,6.065-3.658,9.6
			v7.825c0.072,4.756,2.272,9.229,5.996,12.188c1.241,3.77,2.862,7.404,4.838,10.846v1.092l-14.275,7.721
			c-8.992,4.834-14.604,14.216-14.608,24.425v1.463h-17.067V110.933z M378.75,207.913v-6.063c0.001-1.639-0.471-3.243-1.358-4.621
			c-2.176-3.434-3.828-7.174-4.9-11.096c-0.529-1.969-1.744-3.684-3.425-4.837c-0.406-0.268-0.791-0.568-1.15-0.896v-5.987
			c0.133-0.121,0.308-0.275,0.542-0.462c1.972-1.622,3.116-4.042,3.117-6.596l-0.034-10.213c-0.184-2.713,0.683-5.392,2.421-7.484
			c3.901-3.469,9.083-5.136,14.275-4.591c5.214-0.551,10.42,1.116,14.346,4.592c1.869,2.314,2.74,5.276,2.421,8.233v9.471
			c0,2.534,1.125,4.936,3.071,6.558c0.233,0.192,0.408,0.346,0.542,0.467v6.013c-0.363,0.329-0.75,0.63-1.158,0.9
			c-1.676,1.152-2.886,2.865-3.412,4.829c-1.073,3.924-2.726,7.665-4.904,11.1c-0.887,1.378-1.359,2.982-1.358,4.621v6.063
			c-0.372,4.335,1.824,8.488,5.617,10.621l17.613,9.529c3.472,1.857,5.644,5.471,5.654,9.408v1.463h-76.8v-1.463
			c0.011-3.938,2.183-7.553,5.654-9.412l17.533-9.479C376.88,216.448,379.107,212.278,378.75,207.913z M315.733,256H460.8v119.467
			c-0.006,4.71-3.823,8.527-8.533,8.533h-8.533v-1.463c-0.006-10.208-5.617-19.588-14.608-24.421v0l-14.275-7.725V349.3
			c1.975-3.442,3.594-7.076,4.833-10.846c3.724-2.959,5.926-7.431,6-12.188v-7.825c-0.033-3.521-1.318-6.915-3.625-9.575
			l-0.021-5.167c0.572-7.381-1.831-14.685-6.675-20.284c-7.084-7.265-17.003-11.05-27.125-10.35
			c-10.106-0.69-20.004,3.098-27.067,10.358c-4.698,5.388-7.091,12.406-6.663,19.541v5.875c-2.329,2.659-3.627,6.065-3.658,9.6
			v7.825c0.072,4.756,2.272,9.229,5.996,12.187c1.241,3.77,2.862,7.404,4.838,10.846v1.092l-14.275,7.721
			c-8.992,4.834-14.604,14.216-14.608,24.425V384h-17.067V256z M378.75,352.979v-6.063c0.001-1.639-0.471-3.243-1.358-4.621
			c-2.176-3.434-3.828-7.174-4.9-11.096c-0.529-1.969-1.744-3.684-3.425-4.837c-0.406-0.268-0.791-0.568-1.15-0.896v-5.987
			c0.133-0.121,0.308-0.275,0.542-0.462c1.973-1.622,3.116-4.042,3.117-6.596l-0.034-10.213c-0.184-2.713,0.683-5.392,2.421-7.484
			c3.901-3.469,9.083-5.136,14.275-4.591c5.214-0.551,10.42,1.115,14.346,4.592c1.869,2.314,2.74,5.276,2.421,8.233v9.471
			c0,2.534,1.125,4.936,3.071,6.558c0.233,0.192,0.408,0.346,0.542,0.467v6.013c-0.363,0.329-0.75,0.63-1.158,0.9
			c-1.676,1.152-2.886,2.865-3.412,4.829c-1.073,3.924-2.726,7.665-4.904,11.1c-0.887,1.378-1.359,2.982-1.358,4.621v6.063
			c-0.372,4.335,1.824,8.488,5.617,10.621l17.613,9.529c3.472,1.857,5.644,5.471,5.654,9.408V384h-76.8v-1.463
			c0.011-3.938,2.183-7.553,5.654-9.412l17.533-9.479C376.88,361.515,379.107,357.344,378.75,352.979z M285.62,26.58l-18.652,18.652
			c-6.912-3.42-15.024-3.42-21.936,0L226.38,26.58C244.09,13.895,267.91,13.895,285.62,26.58z M264.533,68.267
			c0.016,3.856-2.555,7.245-6.274,8.265s-7.66-0.579-9.615-3.904c-1.955-3.324-1.437-7.546,1.263-10.3L250,62.267l0.062-0.093
			c3.29-3.253,8.586-3.253,11.876,0L262,62.267l0.093,0.062C263.653,63.912,264.529,66.044,264.533,68.267z M214.314,38.647
			l18.652,18.652c-1.668,3.417-2.545,7.166-2.565,10.968c0,14.138,11.461,25.6,25.6,25.6s25.6-11.462,25.6-25.6
			c-0.02-3.802-0.897-7.551-2.565-10.968l18.652-18.652c15.148,21.242,11.9,50.477-7.539,67.877c-19.44,17.4-48.854,17.4-68.294,0
			C202.413,89.123,199.166,59.889,214.314,38.647z M248.541,136.126c17.993,1.978,36.032-3.295,50.126-14.653V384H281.6v-12.996
			c0.064-18.183-9.718-34.977-25.567-43.892l-34.821-19.4l-0.004-0.371v-10.675c4.866-8.291,8.691-17.151,11.388-26.379
			c6.726-4.713,10.886-12.279,11.263-20.483v-16.854c-0.19-6.351-2.91-12.363-7.554-16.7l-0.025-15.925
			c1.002-13.112-3.151-26.098-11.575-36.196c-10.829-12.596-27.575-19.012-49.808-19.063c-22.167,0.05-38.892,6.467-49.713,19.075
			c-8.279,9.894-12.409,22.608-11.525,35.479v16.583c-4.697,4.327-7.455,10.362-7.65,16.746v16.854
			c0.375,8.203,4.532,15.768,11.254,20.483c2.717,9.222,6.544,18.08,11.396,26.379v10.675l-0.004,0.371l-34.821,19.4
			c-15.849,8.913-25.632,25.708-25.567,43.892V384h-8.533c-4.71-0.006-8.527-3.823-8.533-8.533v-256
			c0.006-4.71,3.823-8.527,8.533-8.533h143.061C214.085,125.082,230.548,134.148,248.541,136.126z M145.725,307.342v-13.063
			c-0.002-1.605-0.453-3.177-1.304-4.537c-5.109-8.294-8.97-17.294-11.458-26.713c-0.508-1.954-1.692-3.665-3.342-4.829
			c-4.404-3.104-6.546-5.85-6.546-8.396V232.95c0-1.804,1.342-3.671,4.625-6.45c1.918-1.621,3.024-4.005,3.025-6.517l-0.033-21.1
			c-0.625-8.539,2.039-16.994,7.446-23.633c9.732-9.558,23.174-14.354,36.758-13.117c13.619-1.247,27.098,3.55,36.867,13.121
			c5.543,6.847,8.223,15.572,7.479,24.35V220c0.001,2.492,1.091,4.859,2.983,6.479c3.242,2.779,4.567,4.654,4.567,6.471v16.854
			c0,2.546-2.142,5.292-6.55,8.396c-1.652,1.162-2.838,2.874-3.346,4.829c-2.494,9.419-6.353,18.423-11.454,26.725
			c-0.85,1.356-1.3,2.924-1.3,4.525v13.063c-0.667,5.632,1.966,11.146,6.767,14.167l36.821,20.513
			c10.441,5.901,16.87,16.99,16.804,28.983L264.534,384H85.333l0-12.996c-0.067-11.993,6.363-23.083,16.804-28.983l36.75-20.475
			C143.718,318.529,146.38,312.999,145.725,307.342z M341.333,477.867c10.845,0.012,20.51,6.846,24.137,17.067H146.529
			c3.627-10.221,13.292-17.054,24.137-17.067H341.333z M213.333,460.8v-25.6h85.333v25.6H213.333z M494.933,392.533
			c-0.015,14.132-11.468,25.585-25.6,25.6H42.667c-14.132-0.015-25.585-11.468-25.6-25.6V102.4
			c0.015-14.132,11.468-25.585,25.6-25.6h145.659c0.727,5.858,2.218,11.595,4.433,17.067H59.733
			c-14.132,0.015-25.585,11.468-25.6,25.6v256c0.015,14.132,11.468,25.585,25.6,25.6h392.533c14.132-0.015,25.585-11.468,25.6-25.6
			v-256c-0.015-14.132-11.468-25.585-25.6-25.6H319.241c2.216-5.471,3.706-11.209,4.433-17.067h145.659
			c14.132,0.015,25.585,11.468,25.6,25.6V392.533z"/>
	</g>
</g>
<g>
</g>
<g>
</g>
<g>
</g>
<g>
</g>
<g>
</g>
<g>
</g>
<g>
</g>
<g>
</g>
<g>
</g>
<g>
</g>
<g>
</g>
<g>
</g>
<g>
</g>
<g>
</g>
<g>
</g>
</svg>
