<?xml version="1.0" encoding="iso-8859-1"?>
<!-- Generator: Adobe Illustrator 19.0.0, SVG Export Plug-In . SVG Version: 6.00 Build 0)  -->
<svg version="1.1" id="Layer_1" xmlns="http://www.w3.org/2000/svg" xmlns:xlink="http://www.w3.org/1999/xlink" x="0px" y="0px"
	 viewBox="0 0 512.002 512.002" style="enable-background:new 0 0 512.002 512.002;" xml:space="preserve">
<g transform="translate(0 -1)">
	<g>
		<g>
			<path d="M392.534,1H119.468c-4.713,0-8.533,3.821-8.533,8.533v409.6c0,4.713,3.82,8.533,8.533,8.533h17.034
				c0.011,0,0.022,0.002,0.033,0.002c39.565,0,72.078,29.842,76.318,68.267h-25.118c-4.713,0-8.533,3.821-8.533,8.533
				s3.82,8.533,8.533,8.533h136.533c4.713,0,8.533-3.821,8.533-8.533s-3.82-8.533-8.533-8.533h-25.118
				c4.24-38.425,36.753-68.267,76.318-68.267c0.011,0,0.022-0.002,0.033-0.002h17.034c4.713,0,8.533-3.821,8.533-8.533V9.533
				C401.068,4.821,397.247,1,392.534,1z M281.99,495.935h-51.979c-2.539-28.222-17.542-52.826-39.474-68.268h130.927
				C299.532,443.11,284.529,467.713,281.99,495.935z M384.001,410.6h-256V18.067h256V410.6z"/>
			<path d="M184.043,121.59c2.441,5.603,3.467,8.115,4.464,11.105l0.478,1.148l16.734,33.135c3.156,6.249,12.08,6.249,15.235-0.002
				l16.759-33.203l0.48-1.154c1.284-3.862,2.627-7.109,5.651-13.933l0.16-0.362c0.292-0.658,0.292-0.658,0.585-1.32
				c2.657-6.002,3.523-12.634,2.395-19.341c-2.374-14.097-13.764-25.563-27.833-27.908c-21.094-3.525-39.948,12.59-39.948,33.642
				c0,4.471,0.878,8.819,2.563,12.879C182.391,117.785,182.908,118.985,184.043,121.59z M216.341,86.59
				c6.862,1.144,12.643,6.964,13.813,13.907c0.569,3.38,0.145,6.628-1.172,9.601c-0.289,0.654-0.289,0.654-0.58,1.309l-0.161,0.363
				c-3.098,6.988-4.596,10.588-6.042,14.862l-8.866,17.566l-8.84-17.503c-1.14-3.35-2.307-6.187-4.706-11.693l-0.099-0.228
				c-1.095-2.513-1.585-3.651-2.159-5.036c-0.831-2.002-1.26-4.129-1.26-6.339C196.269,92.858,205.686,84.809,216.341,86.59z"/>
			<path d="M145.068,385.002c0.001,4.712,3.821,8.532,8.533,8.532h204.8c4.713,0,8.533-3.82,8.533-8.533V43.667
				c0-4.713-3.82-8.533-8.533-8.533h-204.8c-4.713,0-8.533,3.82-8.533,8.533V385c0,0,0,0,0,0
				C145.068,385.001,145.068,385.001,145.068,385.002L145.068,385.002z M162.457,376.467
				c4.351-57.322,52.165-102.398,110.611-102.398h8.533v102.398H162.457z M298.668,376.467V274.068h51.2v102.398H298.668z
				 M298.668,257.002v-51.2h51.2v51.2H298.668z M349.868,188.735h-51.2V52.2h51.2V188.735z M281.601,52.2v136.535H162.134V52.2
				H281.601z M162.134,205.802h119.467v51.2h-8.533c-47.447,0-88.825,25.757-110.933,64.063V205.802z"/>
		</g>
	</g>
</g>
<g>
</g>
<g>
</g>
<g>
</g>
<g>
</g>
<g>
</g>
<g>
</g>
<g>
</g>
<g>
</g>
<g>
</g>
<g>
</g>
<g>
</g>
<g>
</g>
<g>
</g>
<g>
</g>
<g>
</g>
</svg>
