<?xml version="1.0" encoding="iso-8859-1"?>
<!-- Generator: Adobe Illustrator 19.0.0, SVG Export Plug-In . SVG Version: 6.00 Build 0)  -->
<svg version="1.1" id="Capa_1" xmlns="http://www.w3.org/2000/svg" xmlns:xlink="http://www.w3.org/1999/xlink" x="0px" y="0px"
	 viewBox="0 0 512.004 512.004" style="enable-background:new 0 0 512.004 512.004;" xml:space="preserve">
<g>
	<g>
		<g>
			<path d="M477.871,136.498H326.566L182.455,4.41c-6.857-5.896-17.015-5.819-23.782,0.179L68.27,87.474V51.165
				c0-4.713-3.82-8.533-8.533-8.533s-8.533,3.82-8.533,8.533v51.951L2.769,147.489c-3.476,3.186-3.711,8.586-0.525,12.062
				c3.186,3.476,8.586,3.711,12.062,0.525l51.456-47.181l104.226-95.539c0.495-0.41,0.853-0.393,1.152-0.179l130.756,119.859
				c-16.552,2.605-28.766,16.84-28.826,33.596v187.733h-93.867V247.431c0-9.426-7.641-17.067-17.067-17.067H93.871
				c-9.426,0-17.067,7.641-17.067,17.067v110.933H42.671v-179.2c0-4.713-3.82-8.533-8.533-8.533s-8.533,3.82-8.533,8.533v179.2
				c0,9.426,7.641,17.067,17.067,17.067h230.4v102.4c0,18.851,15.282,34.133,34.133,34.133h170.667
				c18.851,0,34.133-15.282,34.133-34.133v-307.2C512.004,151.78,496.722,136.498,477.871,136.498z M162.137,358.365H93.871V247.431
				h68.267V358.365z M494.937,477.831c0,9.426-7.641,17.067-17.067,17.067H307.204c-9.426,0-17.067-7.641-17.067-17.067v-25.6h204.8
				V477.831z M494.937,435.165h-204.8v-230.4h204.8V435.165z M494.937,187.698h-204.8v-17.067c0-9.426,7.641-17.067,17.067-17.067
				h170.667c9.426,0,17.067,7.641,17.067,17.067V187.698z"/>
			<path d="M332.198,306.516c33.346-33.272,87.332-33.272,120.678,0c3.348,3.234,8.671,3.188,11.962-0.104
				c3.292-3.292,3.338-8.614,0.104-11.962c-40.011-39.935-104.8-39.935-144.811,0c-3.234,3.348-3.188,8.671,0.104,11.962
				C323.527,309.704,328.85,309.75,332.198,306.516z"/>
			<path d="M344.264,318.582c-2.218,2.143-3.108,5.315-2.327,8.299c0.781,2.983,3.111,5.313,6.094,6.094
				c2.983,0.781,6.156-0.109,8.299-2.327c20.009-19.966,52.405-19.966,72.414,0c2.143,2.218,5.315,3.108,8.299,2.327
				c2.984-0.781,5.313-3.111,6.094-6.094c0.781-2.984-0.109-6.156-2.327-8.299C414.131,291.968,370.944,291.968,344.264,318.582z"/>
			<path d="M368.405,342.714c-3.234,3.348-3.188,8.671,0.104,11.962c3.292,3.292,8.614,3.338,11.962,0.104
				c6.665-6.663,17.468-6.663,24.132,0c3.348,3.234,8.671,3.188,11.962-0.104c3.292-3.292,3.338-8.614,0.104-11.962
				C403.34,329.389,381.734,329.389,368.405,342.714z"/>
		</g>
	</g>
</g>
<g>
</g>
<g>
</g>
<g>
</g>
<g>
</g>
<g>
</g>
<g>
</g>
<g>
</g>
<g>
</g>
<g>
</g>
<g>
</g>
<g>
</g>
<g>
</g>
<g>
</g>
<g>
</g>
<g>
</g>
</svg>
