<svg height="512pt" viewBox="0 -47 512 512" width="512pt" xmlns="http://www.w3.org/2000/svg"><path d="m503.464844 245.589844v-117.589844c0-4.710938-3.820313-8.535156-8.53125-8.535156h-51.199219c-4.714844 0-8.535156 3.824218-8.535156 8.535156v110.933594h-36.003907l-4.265624-17.066406h6.136718c9.421875-.011719 17.054688-7.644532 17.066406-17.066407v-187.734375c-.011718-9.421875-7.644531-17.0546872-17.066406-17.066406h-290.132812c-9.421875.0078125-17.058594 7.644531-17.066406 17.066406v187.734375c.007812 9.421875 7.644531 17.054688 17.066406 17.066407h6.136718l-4.265624 17.066406h-36.003907v-110.933594c0-4.710938-3.820312-8.535156-8.535156-8.535156h-51.199219c-4.710937 0-8.53125 3.824218-8.53125 8.535156v117.589844c-5.414062 4.8125-8.5156248 11.703125-8.535156 18.945312v85.332032c.015625 14.132812 11.46875 25.582031 25.601562 25.597656h6.65625l-5.121093 25.601562h-18.601563c-4.714844 0-8.535156 3.820313-8.535156 8.535156 0 4.710938 3.820312 8.53125 8.535156 8.53125h494.929688c4.714844 0 8.535156-3.820312 8.535156-8.53125 0-4.714843-3.820312-8.535156-8.535156-8.535156h-18.601563l-5.121093-25.601562h6.65625c14.132812-.015625 25.585937-11.464844 25.601562-25.597656v-85.332032c-.019531-7.242187-3.121094-14.132812-8.535156-18.945312zm-17.066406-109.054688v21.8125c-10.496094-6.332031-23.632813-6.332031-34.132813 0v-21.8125zm0 51.199219c0 9.425781-7.640626 17.066406-17.066407 17.066406s-17.066406-7.640625-17.066406-17.066406 7.640625-17.066406 17.066406-17.066406c9.421875.007812 17.058594 7.644531 17.066407 17.066406zm-34.132813 29.386719c10.5 6.328125 23.636719 6.328125 34.132813 0v21.8125h-34.132813zm-70.660156 21.8125h-10.40625l-12.800781-17.066406h18.941406zm40.230469 136.53125 15.359374 25.601562h-362.390624l15.359374-25.601562zm-84.769532-153.597656 12.800782 17.066406h-187.734376l12.800782-17.066406zm-174.933594 136.53125v-42.664063h187.734376v42.664063zm187.734376-59.730469h-187.734376v-42.667969h187.734376zm-238.933594-281.601563h290.132812v187.734375h-290.132812zm23.730468 204.800782h18.9375l-12.800781 17.066406h-10.40625zm-74.929687-85.332032v21.8125c-10.496094-6.332031-23.636719-6.332031-34.132813 0v-21.8125zm0 51.199219c0 9.425781-7.640625 17.066406-17.066406 17.066406s-17.066407-7.640625-17.066407-17.066406 7.640626-17.066406 17.066407-17.066406c9.421875.007812 17.054687 7.644531 17.066406 17.066406zm-34.132813 29.382813c10.496094 6.332031 23.636719 6.332031 34.132813 0v21.816406h-34.132813zm-8.535156 132.75v-85.332032c.007813-4.710937 3.824219-8.527344 8.535156-8.535156h119.464844v102.398438h-119.464844c-4.710937-.003907-8.527343-3.820313-8.535156-8.53125zm27.476563 51.199218 5.121093-25.601562h20.597657l-15.359375 25.601562zm422.914062 0h-10.355469l-15.363281-25.601562h20.597657zm27.476563-51.199218c-.003906 4.710937-3.824219 8.527343-8.535156 8.53125h-119.464844v-102.398438h119.464844c4.710937.003906 8.53125 3.820312 8.535156 8.535156zm0 0"/><path d="m119.464844 298.667969h-8.53125c-4.714844 0-8.535156 3.820312-8.535156 8.53125 0 4.714843 3.820312 8.535156 8.535156 8.535156h8.53125c4.714844 0 8.535156-3.820313 8.535156-8.535156 0-4.710938-3.820312-8.53125-8.535156-8.53125zm0 0"/><path d="m401.066406 298.667969h-8.53125c-4.714844 0-8.535156 3.820312-8.535156 8.53125 0 4.714843 3.820312 8.535156 8.535156 8.535156h8.53125c4.714844 0 8.535156-3.820313 8.535156-8.535156 0-4.710938-3.820312-8.53125-8.535156-8.53125zm0 0"/><path d="m136.535156 85.332031c2.261719.003907 4.433594-.894531 6.03125-2.5l34.132813-34.132812c3.234375-3.347657 3.1875-8.671875-.101563-11.960938-3.292968-3.292969-8.617187-3.339843-11.964844-.105469l-34.132812 34.132813c-2.441406 2.441406-3.167969 6.113281-1.847656 9.300781 1.320312 3.1875 4.429687 5.265625 7.882812 5.265625zm0 0"/><path d="m207.300781 36.632812-76.800781 76.800782c-2.21875 2.140625-3.109375 5.316406-2.328125 8.296875.78125 2.984375 3.113281 5.316406 6.097656 6.097656 2.980469.78125 6.15625-.109375 8.296875-2.328125l76.800782-76.800781c3.234374-3.347657 3.1875-8.671875-.105469-11.960938-3.289063-3.292969-8.613281-3.339843-11.960938-.105469zm0 0"/></svg>